<svg width="19" height="19" viewBox="0 0 19 19" fill="none" xmlns="http://www.w3.org/2000/svg">
<path d="M16.6992 14.4038L6.90387 4.60846C6.68944 4.40419 6.40465 4.29025 6.10849 4.29025C5.81234 4.29025 5.52754 4.40419 5.31312 4.60846L3.85849 6.06309C3.64759 6.27406 3.52911 6.56015 3.52911 6.85846C3.52911 7.15677 3.64759 7.44287 3.85849 7.65384L13.6533 17.4492C13.8643 17.6601 14.1504 17.7786 14.4487 17.7786C14.747 17.7786 15.0331 17.6601 15.2441 17.4492L16.6992 15.9946C16.9101 15.7836 17.0286 15.4975 17.0286 15.1992C17.0286 14.9009 16.9101 14.6148 16.6992 14.4038ZM4.65387 6.85846L6.10849 5.40384L8.92099 8.21634L7.46581 9.67153L4.65387 6.85846ZM1.27887 9.90384L2.40387 8.77884L3.52887 9.90384L2.40387 11.0288L1.27887 9.90384ZM8.02887 3.15384L9.15387 2.02884L10.2789 3.15384L9.15387 4.27884L8.02887 3.15384ZM1.27887 3.15384L2.40387 2.02884L3.52887 3.15384L2.40387 4.27884L1.27887 3.15384Z" fill="white"/>
</svg>
