<svg width="11" height="11" viewBox="0 0 11 11" fill="none" xmlns="http://www.w3.org/2000/svg">
<path d="M1.57361 3.47351C1.69668 3.35049 1.86357 3.28137 2.03758 3.28137C2.21159 3.28137 2.37848 3.35049 2.50155 3.47351L5.74999 6.72195L8.99842 3.47351C9.12219 3.35397 9.28796 3.28783 9.46003 3.28932C9.6321 3.29082 9.79669 3.35983 9.91837 3.48151C10.04 3.60318 10.1091 3.76778 10.1106 3.93984C10.112 4.11191 10.0459 4.27768 9.92636 4.40145L6.21395 8.11386C6.09089 8.23688 5.924 8.306 5.74999 8.306C5.57597 8.306 5.40908 8.23688 5.28602 8.11386L1.57361 4.40145C1.45058 4.27839 1.38147 4.1115 1.38147 3.93748C1.38147 3.76347 1.45058 3.59658 1.57361 3.47351Z" fill="white"/>
</svg>
