<svg width="21" height="20" viewBox="0 0 21 20" fill="none" xmlns="http://www.w3.org/2000/svg">
<g clip-path="url(#clip0_2050_1299)">
<path d="M5.42682 12.9309L4.51787 14.7805C4.51263 14.7912 4.50652 14.8015 4.49959 14.8112C4.46021 14.8831 4.4092 14.9479 4.34863 15.0031C4.28939 15.057 4.22238 15.1016 4.14985 15.1356C4.14171 15.1391 4.11994 15.1468 4.10661 15.1511C4.09894 15.1545 4.09109 15.1575 4.08308 15.16C4.07545 15.1623 4.06771 15.1643 4.05987 15.1658C3.99098 15.1878 3.91917 15.1993 3.84685 15.2C3.81874 15.1996 3.79074 15.1964 3.76325 15.1906C3.73115 15.1875 3.69927 15.1824 3.66779 15.1754C3.63574 15.1668 3.60432 15.156 3.57375 15.1431C3.5549 15.1373 3.53647 15.1302 3.51862 15.1218L1.66835 14.2126C1.58029 14.1694 1.50161 14.1092 1.43681 14.0356C1.372 13.9619 1.32234 13.8762 1.29065 13.7834C1.22666 13.5959 1.23977 13.3906 1.32712 13.2128C1.41446 13.0349 1.56888 12.899 1.75639 12.835C1.94391 12.7711 2.14917 12.7842 2.32701 12.8715L2.60413 13.0077C2.21128 11.1677 2.41106 9.25051 3.17482 7.53101C3.93859 5.8115 5.22713 4.37795 6.85576 3.43581C7.5704 3.02146 8.34055 2.71129 9.14289 2.51469C9.23821 2.4914 9.33718 2.48712 9.43415 2.5021C9.53113 2.51708 9.6242 2.55103 9.70804 2.60199C9.79189 2.65296 9.86487 2.71995 9.92282 2.79914C9.98076 2.87832 10.0225 2.96815 10.0457 3.06349C10.0924 3.25595 10.0608 3.45906 9.95797 3.62827C9.8551 3.79749 9.68931 3.919 9.49697 3.96615C8.83274 4.12935 8.19519 4.38648 7.60359 4.72977C6.29 5.49111 5.24135 6.63682 4.59895 8.0125C3.95656 9.38818 3.75129 10.9277 4.01081 12.4236L4.08569 12.2715C4.12898 12.1835 4.1892 12.1048 4.26289 12.04C4.33659 11.9752 4.42232 11.9256 4.5152 11.8939C4.60808 11.8623 4.70628 11.8492 4.80421 11.8555C4.90213 11.8618 4.99786 11.8874 5.08592 11.9306C5.17398 11.9739 5.25265 12.0341 5.31744 12.1078C5.38223 12.1815 5.43187 12.2673 5.46352 12.3602C5.49518 12.453 5.50823 12.5512 5.50193 12.6492C5.49563 12.7471 5.47011 12.8428 5.42682 12.9309ZM18.5899 15.8177C18.5865 15.7773 18.5797 15.7374 18.5696 15.6982C18.5685 15.6922 18.567 15.6864 18.5653 15.6806C18.5251 15.5384 18.4439 15.4112 18.3316 15.3151C18.3235 15.3074 18.2957 15.2832 18.2867 15.2766C18.2709 15.2657 18.2545 15.2557 18.2376 15.2467L18.1311 15.4425L18.2045 15.2279C18.1743 15.2113 18.143 15.1968 18.1108 15.1846C18.094 15.1783 18.0777 15.1727 18.06 15.1674C18.0336 15.1595 18.0067 15.1531 17.9796 15.1482C17.9564 15.1438 17.9334 15.1409 17.9117 15.1391C17.8884 15.1369 17.8649 15.1361 17.8415 15.1366C17.831 15.1358 17.8052 15.1358 17.7959 15.1362L15.7397 15.274C15.6418 15.2806 15.5462 15.3063 15.4583 15.3499C15.3703 15.3934 15.2918 15.4538 15.2272 15.5277C15.1626 15.6015 15.1132 15.6874 15.0818 15.7803C15.0504 15.8733 15.0376 15.9715 15.0442 16.0694C15.0507 16.1673 15.0765 16.263 15.12 16.3509C15.1636 16.4389 15.224 16.5174 15.2978 16.582C15.3717 16.6465 15.4576 16.696 15.5505 16.7274C15.6435 16.7588 15.7417 16.7716 15.8396 16.765L16.0085 16.7537C14.8427 17.7264 13.4068 18.3185 11.8942 18.45C10.3816 18.5815 8.86499 18.2461 7.54883 17.4892C6.95574 17.1487 6.41435 16.7251 5.94109 16.2314C5.83895 16.1246 5.70744 16.0505 5.56319 16.0185C5.41893 15.9864 5.26841 15.9978 5.13065 16.0513C4.9929 16.1048 4.87408 16.1979 4.78924 16.3189C4.7044 16.4399 4.65733 16.5833 4.65399 16.731C4.65147 16.8292 4.66849 16.9268 4.70406 17.0183C4.73963 17.1098 4.79305 17.1933 4.86119 17.264C5.43256 17.8605 6.08625 18.3722 6.80242 18.7837C8.43104 19.7272 10.3172 20.1293 12.189 19.932C14.0608 19.7348 15.8217 18.9483 17.2178 17.686L17.2381 17.9882C17.2514 18.1769 17.3355 18.3537 17.4737 18.4829C17.6119 18.6122 17.7939 18.6844 17.9831 18.6851C18.0005 18.6851 18.0177 18.6846 18.0334 18.6835C18.2311 18.6699 18.4153 18.5786 18.5457 18.4294C18.6761 18.2802 18.7421 18.0854 18.7291 17.8877L18.5912 15.8315C18.591 15.8271 18.5905 15.8225 18.5899 15.8177ZM13.9569 2.6884L14.2138 2.51642C14.2953 2.46179 14.3652 2.39164 14.4196 2.30998C14.474 2.22832 14.5118 2.13675 14.5308 2.04049C14.5498 1.94423 14.5496 1.84517 14.5303 1.74897C14.511 1.65277 14.473 1.56131 14.4184 1.47981C14.3637 1.39831 14.2936 1.32837 14.2119 1.27398C14.1303 1.21959 14.0387 1.18182 13.9424 1.16282C13.8462 1.14382 13.7471 1.14397 13.6509 1.16326C13.5547 1.18254 13.4633 1.22058 13.3818 1.27521L11.6944 2.40845C11.6854 2.41297 11.6767 2.41801 11.6683 2.42354C11.6274 2.45103 11.5894 2.48265 11.5549 2.5179L11.5525 2.5201C11.4821 2.59148 11.4271 2.67652 11.3909 2.76998C11.3772 2.80535 11.3663 2.84169 11.3581 2.87871L11.5702 2.95388L11.3509 2.91369C11.3485 2.92312 11.3433 2.95099 11.3421 2.96086C11.3402 2.97807 11.3398 2.99541 11.3407 3.0127C11.3398 3.02987 11.3398 3.04701 11.3401 3.06456C11.3409 3.09687 11.344 3.12909 11.3492 3.16099C11.3521 3.17857 11.3554 3.1954 11.3596 3.21238C11.3664 3.24178 11.3749 3.27073 11.3852 3.29909C11.3918 3.31753 11.3996 3.33552 11.4069 3.35162C11.4175 3.37494 11.4294 3.39762 11.4426 3.41955C11.4472 3.42927 11.4591 3.45047 11.4649 3.45931L12.6127 5.17125C12.7262 5.3319 12.8971 5.44276 13.0901 5.48091C13.283 5.51905 13.4833 5.48154 13.6493 5.37616C13.8137 5.2657 13.9276 5.09454 13.966 4.90023C14.0043 4.70591 13.9641 4.50432 13.854 4.33967L13.7596 4.19874C15.1849 4.72198 16.4156 5.66952 17.2858 6.91369C18.1561 8.15786 18.624 9.63888 18.6267 11.1572C18.628 11.841 18.5319 12.5216 18.3412 13.1783C18.3127 13.2728 18.3031 13.3719 18.3131 13.47C18.3231 13.5682 18.3525 13.6634 18.3995 13.7501C18.4465 13.8368 18.5102 13.9134 18.5869 13.9754C18.6636 14.0374 18.7519 14.0835 18.8466 14.1112C18.9413 14.1389 19.0405 14.1476 19.1385 14.1367C19.2366 14.1259 19.3315 14.0957 19.4178 14.0479C19.5041 14.0002 19.5801 13.9358 19.6415 13.8586C19.7028 13.7813 19.7482 13.6926 19.775 13.5977C20.0059 12.8045 20.1224 11.9824 20.121 11.1563C20.1194 9.27475 19.5222 7.44201 18.4149 5.92081C17.3075 4.3996 15.747 3.26806 13.9569 2.6884Z" fill="white"/>
</g>
<defs>
<clipPath id="clip0_2050_1299">
<rect width="20.129" height="19.5" fill="white" transform="translate(0.620972 0.5)"/>
</clipPath>
</defs>
</svg>
