<svg width="82" height="83" viewBox="0 0 82 83" fill="none" xmlns="http://www.w3.org/2000/svg">
<g clip-path="url(#clip0_2050_1309)">
<path d="M21.289 66.9219C15.8356 66.9219 10.9851 63.4305 9.22407 58.2326L9.10485 57.8409C8.68929 56.4647 8.51557 55.3066 8.51557 54.1485V30.9247L0.252011 58.5085C-0.810739 62.5653 1.6111 66.7721 5.67476 67.8927L58.3456 81.998C59.003 82.1683 59.6604 82.25 60.3076 82.25C63.7002 82.25 66.7999 79.9985 67.6685 76.6808L70.7375 66.9219H21.289Z" fill="url(#paint0_linear_2050_1309)"/>
<path d="M30.6563 31.1563C34.4133 31.1563 37.4688 28.1008 37.4688 24.3438C37.4688 20.5867 34.4133 17.5312 30.6563 17.5312C26.8992 17.5312 23.8438 20.5867 23.8438 24.3438C23.8438 28.1008 26.8992 31.1563 30.6563 31.1563Z" fill="url(#paint1_linear_2050_1309)"/>
<path d="M73.2344 7.3125H22.1406C17.4468 7.3125 13.625 11.1343 13.625 15.8281V53.2969C13.625 57.9907 17.4468 61.8125 22.1406 61.8125H73.2344C77.9282 61.8125 81.75 57.9907 81.75 53.2969V15.8281C81.75 11.1343 77.9282 7.3125 73.2344 7.3125ZM22.1406 14.125H73.2344C74.1745 14.125 74.9375 14.888 74.9375 15.8281V40.0091L64.1772 27.4537C63.0361 26.115 61.384 25.3997 59.6094 25.3588C57.8449 25.369 56.1895 26.1525 55.0586 27.5082L42.4078 42.6932L38.2862 38.5819C35.9564 36.252 32.1652 36.252 29.8388 38.5819L20.4375 47.9797V15.8281C20.4375 14.888 21.2005 14.125 22.1406 14.125Z" fill="url(#paint2_linear_2050_1309)"/>
</g>
<defs>
<linearGradient id="paint0_linear_2050_1309" x1="70.7375" y1="56.5874" x2="0.00195312" y2="56.5874" gradientUnits="userSpaceOnUse">
<stop stop-color="#BD345E"/>
<stop offset="1" stop-color="#273282"/>
</linearGradient>
<linearGradient id="paint1_linear_2050_1309" x1="37.4688" y1="24.3438" x2="23.8438" y2="24.3438" gradientUnits="userSpaceOnUse">
<stop stop-color="#BD345E"/>
<stop offset="1" stop-color="#273282"/>
</linearGradient>
<linearGradient id="paint2_linear_2050_1309" x1="81.75" y1="34.5625" x2="13.625" y2="34.5625" gradientUnits="userSpaceOnUse">
<stop stop-color="#BD345E"/>
<stop offset="1" stop-color="#273282"/>
</linearGradient>
<clipPath id="clip0_2050_1309">
<rect width="81.75" height="81.75" fill="white" transform="translate(0 0.5)"/>
</clipPath>
</defs>
</svg>
