<svg width="9" height="6" viewBox="0 0 9 6" fill="none" xmlns="http://www.w3.org/2000/svg">
<path d="M0.192141 0.583712C0.315206 0.460684 0.482096 0.391571 0.65611 0.391571C0.830124 0.391571 0.997014 0.460684 1.12008 0.583712L4.36852 3.83215L7.61695 0.583712C7.74072 0.464171 7.9065 0.398024 8.07856 0.39952C8.25063 0.401015 8.41522 0.470032 8.5369 0.591706C8.65857 0.71338 8.72759 0.877976 8.72908 1.05004C8.73058 1.22211 8.66443 1.38788 8.54489 1.51165L4.83249 5.22406C4.70942 5.34708 4.54253 5.4162 4.36852 5.4162C4.1945 5.4162 4.02761 5.34708 3.90455 5.22406L0.192141 1.51165C0.0691132 1.38858 0 1.22169 0 1.04768C0 0.873667 0.0691132 0.706777 0.192141 0.583712Z" fill="#BA355F"/>
</svg>
